<svg width="28" height="30" viewBox="0 0 28 30" fill="none" xmlns="http://www.w3.org/2000/svg">
<g filter="url(#filter0_d_26_77)">
<path fill-rule="evenodd" clip-rule="evenodd" d="M16.456 2.47362C15.695 2.16764 14.8657 2 14.0006 2C10.6446 2 7.82522 4.52345 7.4546 7.85899L7.2028 10.1252L7.19675 10.1793C7.08392 11.1625 6.76388 12.1106 6.25775 12.9611L6.22981 13.0077L5.65177 13.9711L5.62762 14.0114C5.3861 14.4138 5.16729 14.7785 5.02153 15.0879C4.87341 15.4024 4.71504 15.8286 4.79127 16.3117C4.86662 16.7893 5.1124 17.2233 5.48313 17.5337C5.8582 17.8476 6.30507 17.931 6.65096 17.9658C6.99133 18.0001 7.41659 18 7.88597 18L7.93287 18H20.0684L20.1153 18C20.5847 18 21.01 18.0001 21.3503 17.9658C21.6962 17.931 22.1431 17.8476 22.5182 17.5337C22.8889 17.2233 23.1347 16.7893 23.21 16.3117C23.2862 15.8286 23.1279 15.4024 22.9798 15.0879C22.834 14.7785 22.6152 14.4138 22.3736 14.0114L22.3495 13.9711L21.7715 13.0077L21.7435 12.9611C21.3648 12.3247 21.0903 11.6336 20.9288 10.914C20.628 10.9705 20.3178 11 20.0006 11C19.6167 11 19.2428 10.9567 18.8837 10.8748C19.0682 11.9715 19.4547 13.0259 20.0249 13.9839L20.0565 14.0367L20.6345 15.0001C20.908 15.456 21.0729 15.733 21.1704 15.9401C21.1757 15.9514 21.1806 15.9621 21.1851 15.972C21.1742 15.9733 21.1626 15.9746 21.1501 15.9759C20.9224 15.9988 20.6 16 20.0684 16H7.93287C7.40128 16 7.07891 15.9988 6.85116 15.9759C6.83871 15.9746 6.82706 15.9733 6.8162 15.972C6.82068 15.9621 6.82557 15.9514 6.83091 15.9401C6.92843 15.733 7.09325 15.456 7.36676 15.0001L7.94479 14.0367L7.97642 13.9839C8.62717 12.8904 9.03864 11.6714 9.18371 10.4073L9.19057 10.3461L9.44237 8.07985C9.70044 5.75718 11.6637 4 14.0006 4C14.4637 4 14.912 4.06898 15.3353 4.19767C15.5873 3.54594 15.9719 2.96023 16.456 2.47362ZM18.9828 4.27804C18.3948 4.62632 18.0006 5.26713 18.0006 6C18.0006 6.14503 18.0161 6.28645 18.0454 6.42272C18.1658 6.6476 18.2681 6.88404 18.3504 7.13021C18.7108 7.65547 19.3155 8 20.0006 8C20.1925 8 20.3781 7.97298 20.5537 7.92254L20.5467 7.85899C20.3944 6.48875 19.8289 5.25555 18.9828 4.27804Z" fill="#808080"/>
<circle cx="20" cy="6" r="2.5" fill="#C63535" stroke="#C63535"/>
<path d="M10 17C10 17.5253 10.1035 18.0454 10.3045 18.5307C10.5055 19.016 10.8001 19.457 11.1716 19.8284C11.543 20.1999 11.984 20.4945 12.4693 20.6955C12.9546 20.8965 13.4747 21 14 21C14.5253 21 15.0454 20.8965 15.5307 20.6955C16.016 20.4945 16.457 20.1999 16.8284 19.8284C17.1999 19.457 17.4945 19.016 17.6955 18.5307C17.8965 18.0454 18 17.5253 18 17" stroke="#808080" stroke-width="2" stroke-linecap="round"/>
</g>
<defs>
<filter id="filter0_d_26_77" x="-2" y="0" width="32" height="32" filterUnits="userSpaceOnUse" color-interpolation-filters="sRGB">
<feFlood flood-opacity="0" result="BackgroundImageFix"/>
<feColorMatrix in="SourceAlpha" type="matrix" values="0 0 0 0 0 0 0 0 0 0 0 0 0 0 0 0 0 0 127 0" result="hardAlpha"/>
<feOffset dy="4"/>
<feGaussianBlur stdDeviation="2"/>
<feComposite in2="hardAlpha" operator="out"/>
<feColorMatrix type="matrix" values="0 0 0 0 0 0 0 0 0 0 0 0 0 0 0 0 0 0 0.25 0"/>
<feBlend mode="normal" in2="BackgroundImageFix" result="effect1_dropShadow_26_77"/>
<feBlend mode="normal" in="SourceGraphic" in2="effect1_dropShadow_26_77" result="shape"/>
</filter>
</defs>
</svg>
