<svg width="52" height="52" viewBox="0 0 52 52" fill="none" xmlns="http://www.w3.org/2000/svg">
<path d="M26 27.6875C23.9975 27.6875 22.0399 27.0937 20.3749 25.9811C18.7098 24.8686 17.4121 23.2873 16.6457 21.4372C15.8794 19.5871 15.6789 17.5513 16.0696 15.5872C16.4602 13.6232 17.4245 11.8191 18.8405 10.403C20.2566 8.98704 22.0607 8.02273 24.0247 7.63205C25.9888 7.24138 28.0246 7.44189 29.8747 8.20822C31.7248 8.97456 33.3061 10.2723 34.4186 11.9374C35.5312 13.6024 36.125 15.56 36.125 17.5625C36.125 20.2478 35.0583 22.8232 33.1595 24.722C31.2607 26.6208 28.6853 27.6875 26 27.6875ZM26 10.8125C24.665 10.8125 23.3599 11.2084 22.2499 11.9501C21.1399 12.6918 20.2747 13.746 19.7638 14.9794C19.2529 16.2128 19.1193 17.57 19.3797 18.8794C19.6402 20.1887 20.283 21.3915 21.227 22.3355C22.171 23.2795 23.3738 23.9224 24.6831 24.1828C25.9925 24.4433 27.3497 24.3096 28.5831 23.7987C29.8165 23.2878 30.8707 22.4226 31.6124 21.3126C32.3541 20.2026 32.75 18.8975 32.75 17.5625C32.75 15.7723 32.0388 14.0554 30.773 12.7895C29.5071 11.5237 27.7902 10.8125 26 10.8125Z" fill="#ACACAC"/>
<path d="M26.002 51.3125C22.2599 51.31 18.5649 50.4778 15.183 48.8758C11.8011 47.2739 8.81642 44.942 6.44391 42.0481L5.56641 40.9681L6.44391 39.905C8.81841 37.0148 11.8039 34.6868 15.1857 33.0885C18.5675 31.4901 22.2615 30.6611 26.002 30.6611C29.7425 30.6611 33.4365 31.4901 36.8183 33.0885C40.2001 34.6868 43.1856 37.0148 45.5602 39.905L46.4377 40.9681L45.5602 42.0481C43.1876 44.942 40.203 47.2739 36.8211 48.8758C33.4392 50.4778 29.7442 51.31 26.002 51.3125ZM9.98766 40.985C12.0401 43.1821 14.5222 44.9339 17.28 46.1316C20.0377 47.3293 23.0123 47.9474 26.0189 47.9474C29.0255 47.9474 32.0001 47.3293 34.7578 46.1316C37.5156 44.9339 39.9978 43.1821 42.0502 40.985C39.9978 38.7878 37.5156 37.036 34.7578 35.8383C32.0001 34.6406 29.0255 34.0225 26.0189 34.0225C23.0123 34.0225 20.0377 34.6406 17.28 35.8383C14.5222 37.036 12.0401 38.7878 9.98766 40.985Z" fill="#ACACAC"/>
<path d="M26.0013 51.3125C20.2515 51.3163 14.6718 49.3625 10.1804 45.7727C5.68907 42.1828 2.55372 37.1708 1.29042 31.5615C0.0271302 25.9523 0.711171 20.0801 3.22996 14.9114C5.74876 9.74269 9.9522 5.58555 15.1485 3.12416C20.3447 0.662771 26.2242 0.0438147 31.8191 1.36916C37.414 2.69451 42.391 5.88518 45.9309 10.416C49.4708 14.9469 51.3627 20.5479 51.2952 26.2973C51.2276 32.0466 49.2047 37.6017 45.5594 42.0481C43.1869 44.9421 40.2022 47.2739 36.8203 48.8759C33.4384 50.4778 29.7434 51.31 26.0013 51.3125V51.3125ZM26.0013 4.06252C21.6624 4.06252 17.4211 5.34913 13.8135 7.75965C10.2058 10.1702 7.39406 13.5963 5.73367 17.6049C4.07327 21.6135 3.63883 26.0244 4.4853 30.2798C5.33176 34.5353 7.42111 38.4442 10.4891 41.5122C13.5571 44.5802 17.466 46.6695 21.7215 47.516C25.9769 48.3625 30.3878 47.928 34.3964 46.2676C38.4049 44.6072 41.8311 41.7954 44.2416 38.1878C46.6522 34.5802 47.9388 30.3388 47.9388 26C47.9388 20.1818 45.6275 14.6019 41.5134 10.4879C37.3993 6.37378 31.8195 4.06252 26.0013 4.06252V4.06252Z" fill="#ACACAC"/>
<path d="M7.74219 40.985C7.74219 40.985 24.7353 59.9693 42.0322 42.875L44.2597 40.985C44.2597 40.985 29.8147 26 15.1503 34.9943L7.74219 40.985Z" fill="#ACACAC"/>
<path d="M26 26C30.6599 26 34.4375 22.2224 34.4375 17.5625C34.4375 12.9026 30.6599 9.125 26 9.125C21.3401 9.125 17.5625 12.9026 17.5625 17.5625C17.5625 22.2224 21.3401 26 26 26Z" fill="#ACACAC"/>
</svg>
