<svg width="110" height="21" viewBox="0 0 110 21" fill="none" xmlns="http://www.w3.org/2000/svg">
<path d="M9.50039 15.42C9.91372 15.42 10.2071 15.5333 10.3804 15.76C10.5537 15.9733 10.6404 16.2 10.6404 16.44C10.6404 16.7733 10.4737 17.1267 10.1404 17.5C9.80706 17.8733 9.37372 18.22 8.84039 18.54C8.32039 18.8467 7.76039 19.1 7.16039 19.3C6.56039 19.5 5.98706 19.6 5.44039 19.6C4.62706 19.6 3.84706 19.38 3.10039 18.94C2.36706 18.4867 1.76706 17.8533 1.30039 17.04C0.847057 16.2267 0.620391 15.26 0.620391 14.14C0.620391 13.22 0.793724 12.3067 1.14039 11.4C1.50039 10.4933 1.97372 9.62 2.56039 8.78C3.16039 7.94 3.81372 7.16 4.52039 6.44C5.24039 5.72 5.96039 5.09333 6.68039 4.56C7.41372 4.02667 8.08706 3.61333 8.70039 3.32C9.31372 3.01333 9.80706 2.86 10.1804 2.86C10.6471 2.86 10.9937 2.98 11.2204 3.22C11.4604 3.44667 11.5804 3.76667 11.5804 4.18C11.5804 4.51333 11.5137 4.77333 11.3804 4.96C11.2604 5.13333 11.0671 5.28667 10.8004 5.42C9.94706 5.86 9.08039 6.39333 8.20039 7.02C7.33372 7.64667 6.54039 8.34 5.82039 9.1C5.10039 9.84667 4.52039 10.6333 4.08039 11.46C3.64039 12.2867 3.42039 13.1267 3.42039 13.98C3.42039 14.9133 3.60706 15.62 3.98039 16.1C4.35372 16.58 4.86039 16.82 5.50039 16.82C5.82039 16.82 6.16706 16.7533 6.54039 16.62C6.91372 16.4733 7.28039 16.3067 7.64039 16.12C8.01372 15.9333 8.36039 15.7733 8.68039 15.64C9.01372 15.4933 9.28706 15.42 9.50039 15.42ZM15.2727 19.76C14.8461 19.76 14.4594 19.64 14.1127 19.4C13.7661 19.1733 13.4927 18.8733 13.2927 18.5C13.0927 18.1133 12.9927 17.7 12.9927 17.26C12.9927 16.4333 13.1727 15.6267 13.5327 14.84C13.9061 14.0533 14.3927 13.3067 14.9927 12.6C15.5927 11.8933 16.2461 11.2467 16.9527 10.66C17.6727 10.06 18.3861 9.54667 19.0927 9.12C19.8127 8.69333 20.4661 8.36 21.0527 8.12C21.6527 7.88 22.1194 7.76 22.4527 7.76C22.8394 7.76 23.1527 7.84667 23.3927 8.02C23.6461 8.18 23.7727 8.43333 23.7727 8.78C23.7727 8.88667 23.7461 8.97333 23.6927 9.04C23.8661 9.08 24.0061 9.18 24.1127 9.34C24.2194 9.5 24.2727 9.74 24.2727 10.06C24.2727 10.1933 24.2394 10.54 24.1727 11.1C24.1061 11.66 24.0327 12.34 23.9527 13.14C23.8861 13.94 23.8527 14.7733 23.8527 15.64C23.8527 15.7733 23.8727 15.8933 23.9127 16C23.9527 16.0933 24.0394 16.14 24.1727 16.14C24.7061 16.14 25.2461 16.0333 25.7927 15.82C26.3527 15.5933 26.8927 15.32 27.4127 15C27.9461 14.6667 28.4261 14.34 28.8527 14.02C29.2927 13.6867 29.6594 13.4133 29.9527 13.2C30.2594 12.9733 30.4594 12.86 30.5527 12.86C31.0061 12.86 31.2327 13.0867 31.2327 13.54C31.2327 13.66 31.0861 13.9133 30.7927 14.3C30.5127 14.6733 30.1261 15.1067 29.6327 15.6C29.1394 16.08 28.5861 16.56 27.9727 17.04C27.3727 17.5067 26.7461 17.8933 26.0927 18.2C25.4527 18.5067 24.8327 18.66 24.2327 18.66C23.4994 18.66 22.9394 18.4867 22.5527 18.14C22.1794 17.7933 21.9127 17.3267 21.7527 16.74C21.6061 16.14 21.5261 15.4667 21.5127 14.72C20.8327 15.6933 20.1261 16.56 19.3927 17.32C18.6727 18.0667 17.9594 18.66 17.2527 19.1C16.5461 19.54 15.8861 19.76 15.2727 19.76ZM22.3527 9.74C21.0461 10.3667 19.8727 11.0867 18.8327 11.9C17.7927 12.7 16.9661 13.54 16.3527 14.42C15.7527 15.3 15.4527 16.1467 15.4527 16.96C15.4527 17.1867 15.5594 17.3 15.7727 17.3C16.0261 17.3 16.3594 17.1533 16.7727 16.86C17.1994 16.5667 17.6594 16.18 18.1527 15.7C18.6461 15.2067 19.1394 14.66 19.6327 14.06C20.1261 13.4467 20.5861 12.82 21.0127 12.18C21.4394 11.54 21.7794 10.9267 22.0327 10.34C22.1261 10.1267 22.2327 9.92667 22.3527 9.74ZM33.6554 20C32.4554 20 31.5087 19.6333 30.8154 18.9C30.1354 18.1533 29.7954 17.0933 29.7954 15.72C29.7954 14.9733 29.8954 14.1 30.0954 13.1C30.2954 12.0867 30.5554 11.02 30.8754 9.9C31.2087 8.76667 31.5621 7.64667 31.9354 6.54C32.3221 5.43333 32.7021 4.40667 33.0754 3.46C33.4487 2.51333 33.7754 1.72 34.0554 1.08C34.2954 0.586666 34.6354 0.339999 35.0754 0.339999C35.3554 0.339999 35.5821 0.426666 35.7554 0.6C35.9421 0.773332 36.0354 1.05333 36.0354 1.44C36.0354 1.62667 35.9421 2.03333 35.7554 2.66C35.5687 3.28667 35.3221 4.06 35.0154 4.98C34.7221 5.88667 34.4021 6.86667 34.0554 7.92C33.7221 8.97333 33.4021 10.0333 33.0954 11.1C32.8021 12.1667 32.5621 13.1733 32.3754 14.12C32.1887 15.0533 32.0954 15.8467 32.0954 16.5C32.0954 16.7667 32.1687 16.98 32.3154 17.14C32.4754 17.3 32.6821 17.38 32.9354 17.38C33.4821 17.38 34.0421 17.28 34.6154 17.08C35.2021 16.88 35.7754 16.6267 36.3354 16.32C36.9087 16.0133 37.4487 15.6867 37.9554 15.34C38.4621 14.9933 38.9154 14.6667 39.3154 14.36C39.7287 14.04 40.0621 13.7867 40.3154 13.6C40.6487 13.3467 40.8754 13.22 40.9954 13.22C41.4487 13.22 41.6754 13.44 41.6754 13.88C41.6754 13.9867 41.5421 14.2067 41.2754 14.54C41.0487 14.8333 40.7287 15.2067 40.3154 15.66C39.9021 16.1133 39.4221 16.5933 38.8754 17.1C38.3421 17.5933 37.7687 18.06 37.1554 18.5C36.5554 18.94 35.9554 19.3 35.3554 19.58C34.7554 19.86 34.1887 20 33.6554 20ZM43.1399 19.68C42.3133 19.68 41.6466 19.3933 41.1399 18.82C40.6333 18.2333 40.3799 17.2933 40.3799 16C40.3799 15.1733 40.4733 14.3467 40.6599 13.52C40.8599 12.68 41.1333 11.8867 41.4799 11.14C41.8399 10.38 42.2533 9.70667 42.7199 9.12C43.1999 8.53333 43.7266 8.07333 44.2999 7.74C44.8733 7.39333 45.4666 7.22 46.0799 7.22C47.1199 7.22 47.9333 7.5 48.5199 8.06C49.1066 8.62 49.3999 9.33333 49.3999 10.2C49.3999 10.8667 49.2133 11.4733 48.8399 12.02C48.4799 12.5533 47.9866 13.0333 47.3599 13.46C46.7333 13.8867 46.0333 14.2733 45.2599 14.62C44.4866 14.9667 43.6933 15.28 42.8799 15.56C42.8133 16.04 42.7799 16.4667 42.7799 16.84C42.7799 17.0667 42.9066 17.18 43.1599 17.18C43.7599 17.18 44.3999 17.0867 45.0799 16.9C45.7733 16.7 46.4733 16.4467 47.1799 16.14C47.8866 15.82 48.5666 15.4933 49.2199 15.16C49.8733 14.8133 50.4666 14.4867 50.9999 14.18C51.5466 13.86 51.9933 13.6067 52.3399 13.42C52.6999 13.22 52.9333 13.12 53.0399 13.12C53.3333 13.12 53.5466 13.2067 53.6799 13.38C53.8133 13.5533 53.8799 13.74 53.8799 13.94C53.8799 14.0333 53.6999 14.24 53.3399 14.56C52.9933 14.88 52.5133 15.26 51.8999 15.7C51.2999 16.1267 50.6199 16.5733 49.8599 17.04C49.1133 17.4933 48.3333 17.9267 47.5199 18.34C46.7199 18.74 45.9399 19.06 45.1799 19.3C44.4333 19.5533 43.7533 19.68 43.1399 19.68ZM43.2199 13.78C43.7666 13.46 44.3066 13.1267 44.8399 12.78C45.3866 12.42 45.8399 12.02 46.1999 11.58C46.5599 11.1267 46.7399 10.6 46.7399 10C46.7399 9.82667 46.6933 9.71333 46.5999 9.66C46.5066 9.59333 46.3733 9.56 46.1999 9.56C45.7333 9.56 45.3066 9.76667 44.9199 10.18C44.5466 10.5933 44.2133 11.1267 43.9199 11.78C43.6399 12.42 43.4066 13.0867 43.2199 13.78ZM54.4148 19C54.0948 19 53.7748 18.8933 53.4548 18.68C53.1481 18.4533 52.8948 18.1333 52.6948 17.72C52.4948 17.2933 52.3948 16.78 52.3948 16.18C52.3948 15.38 52.5014 14.5267 52.7148 13.62C52.9414 12.7133 53.2148 11.8067 53.5348 10.9C53.8548 9.99333 54.1681 9.14 54.4748 8.34C54.6214 7.95333 54.8014 7.69333 55.0148 7.56C55.2281 7.41333 55.5081 7.34 55.8548 7.34C56.6414 7.34 57.0348 7.73333 57.0348 8.52C57.0348 8.65333 56.9748 8.91333 56.8548 9.3C56.7348 9.67333 56.5748 10.1333 56.3748 10.68C56.1881 11.2267 55.9881 11.82 55.7748 12.46C55.5748 13.0867 55.3881 13.7267 55.2148 14.38C55.0548 15.02 54.9281 15.6267 54.8348 16.2C55.1414 15.7333 55.4814 15.1533 55.8548 14.46C56.2414 13.7533 56.6481 13.0133 57.0748 12.24C57.5148 11.4667 57.9548 10.7467 58.3948 10.08C58.8348 9.4 59.2681 8.84667 59.6948 8.42C60.1214 7.99333 60.5281 7.78 60.9148 7.78C61.2481 7.78 61.5614 7.84667 61.8548 7.98C62.1614 8.1 62.4281 8.34 62.6548 8.7C62.8814 9.04667 63.0548 9.54667 63.1748 10.2C63.3081 10.8533 63.3748 11.7133 63.3748 12.78C63.3748 13.3133 63.4214 13.8333 63.5148 14.34C63.6214 14.8333 63.7948 15.2467 64.0348 15.58C64.2748 15.9 64.6148 16.06 65.0548 16.06C65.8148 16.06 66.4948 15.92 67.0948 15.64C67.6948 15.36 68.2214 15.0333 68.6748 14.66C69.1281 14.2867 69.5081 13.96 69.8148 13.68C70.0014 13.4933 70.1614 13.3467 70.2948 13.24C70.4414 13.1333 70.5614 13.08 70.6548 13.08C70.9348 13.08 71.1348 13.1533 71.2548 13.3C71.3881 13.4467 71.4548 13.6467 71.4548 13.9C71.4548 14.0333 71.3414 14.28 71.1148 14.64C70.8881 15 70.5681 15.4133 70.1548 15.88C69.7548 16.3333 69.2948 16.7733 68.7748 17.2C68.2548 17.6267 67.6948 17.98 67.0948 18.26C66.4948 18.54 65.8814 18.68 65.2548 18.68C64.2014 18.68 63.3281 18.4933 62.6348 18.12C61.9548 17.7333 61.4481 17.0933 61.1148 16.2C60.7814 15.2933 60.6148 14.06 60.6148 12.5C60.6148 12.46 60.6148 12.3933 60.6148 12.3C60.6148 11.8867 60.6081 11.52 60.5948 11.2C60.5948 10.88 60.5748 10.62 60.5348 10.42C60.3081 10.8333 60.0348 11.3267 59.7148 11.9C59.4081 12.4733 59.0748 13.0867 58.7148 13.74C58.3548 14.38 57.9814 15.0133 57.5948 15.64C57.2081 16.2533 56.8214 16.8133 56.4348 17.32C56.0614 17.8267 55.7014 18.2333 55.3548 18.54C55.0081 18.8467 54.6948 19 54.4148 19ZM77.8954 8.3C78.6287 6.55333 79.2754 4.75333 79.8354 2.9C79.9421 2.52667 80.0954 2.24 80.2954 2.04C80.5087 1.84 80.8021 1.74 81.1754 1.74C81.4821 1.74 81.7154 1.83333 81.8754 2.02C82.0354 2.19333 82.1154 2.43333 82.1154 2.74C82.1154 2.99333 82.0087 3.44667 81.7954 4.1C81.5821 4.74 81.3221 5.55333 81.0154 6.54C80.7087 7.52667 80.4021 8.66667 80.0954 9.96C79.7887 11.2533 79.5287 12.6733 79.3154 14.22C79.1021 15.7667 78.9954 17.42 78.9954 19.18C78.9954 19.66 78.9021 20.0533 78.7154 20.36C78.5421 20.68 78.2354 20.84 77.7954 20.84C77.3154 20.84 76.9621 20.6733 76.7354 20.34C76.5221 20.0067 76.4154 19.58 76.4154 19.06C76.4154 18.0333 76.4487 17.18 76.5154 16.5C76.5954 15.8067 76.6754 15.2133 76.7554 14.72C76.1021 15.84 75.4087 16.8067 74.6754 17.62C73.9554 18.42 73.2621 19.0333 72.5954 19.46C71.9287 19.9 71.3554 20.12 70.8754 20.12C70.0887 20.12 69.4487 19.9 68.9554 19.46C68.4621 19.02 68.2154 18.3533 68.2154 17.46C68.2154 16.7667 68.3821 16.0533 68.7154 15.32C69.0487 14.5733 69.4887 13.84 70.0354 13.12C70.5821 12.4 71.1821 11.7267 71.8354 11.1C72.5021 10.46 73.1687 9.9 73.8354 9.42C74.5021 8.92667 75.1221 8.54 75.6954 8.26C76.2687 7.98 76.7354 7.84 77.0954 7.84C77.4954 7.84 77.7621 7.99333 77.8954 8.3ZM77.4354 9.38C77.3554 9.43333 77.2687 9.48667 77.1754 9.54C77.0954 9.58 77.0154 9.62667 76.9354 9.68C76.4287 10 75.8887 10.3867 75.3154 10.84C74.7421 11.28 74.1754 11.7733 73.6154 12.32C73.0554 12.8533 72.5421 13.4133 72.0754 14C71.6221 14.5733 71.2554 15.1467 70.9754 15.72C70.7087 16.28 70.5754 16.82 70.5754 17.34C70.5754 17.4333 70.6154 17.5 70.6954 17.54C70.7754 17.58 70.8487 17.6 70.9154 17.6C71.3821 17.6 71.8821 17.3933 72.4154 16.98C72.9621 16.5667 73.5154 15.9933 74.0754 15.26C74.6487 14.5133 75.2154 13.64 75.7754 12.64C76.3487 11.64 76.9021 10.5533 77.4354 9.38ZM84.511 19.76C84.0843 19.76 83.6977 19.64 83.351 19.4C83.0043 19.1733 82.731 18.8733 82.531 18.5C82.331 18.1133 82.231 17.7 82.231 17.26C82.231 16.4333 82.411 15.6267 82.771 14.84C83.1443 14.0533 83.631 13.3067 84.231 12.6C84.831 11.8933 85.4843 11.2467 86.191 10.66C86.911 10.06 87.6243 9.54667 88.331 9.12C89.051 8.69333 89.7043 8.36 90.291 8.12C90.891 7.88 91.3577 7.76 91.691 7.76C92.0777 7.76 92.391 7.84667 92.631 8.02C92.8843 8.18 93.011 8.43333 93.011 8.78C93.011 8.88667 92.9843 8.97333 92.931 9.04C93.1043 9.08 93.2443 9.18 93.351 9.34C93.4577 9.5 93.511 9.74 93.511 10.06C93.511 10.1933 93.4777 10.54 93.411 11.1C93.3443 11.66 93.271 12.34 93.191 13.14C93.1243 13.94 93.091 14.7733 93.091 15.64C93.091 15.7733 93.111 15.8933 93.151 16C93.191 16.0933 93.2777 16.14 93.411 16.14C93.9443 16.14 94.4843 16.0333 95.031 15.82C95.591 15.5933 96.131 15.32 96.651 15C97.1843 14.6667 97.6643 14.34 98.091 14.02C98.531 13.6867 98.8977 13.4133 99.191 13.2C99.4977 12.9733 99.6977 12.86 99.791 12.86C100.244 12.86 100.471 13.0867 100.471 13.54C100.471 13.66 100.324 13.9133 100.031 14.3C99.751 14.6733 99.3644 15.1067 98.871 15.6C98.3777 16.08 97.8244 16.56 97.211 17.04C96.611 17.5067 95.9843 17.8933 95.331 18.2C94.691 18.5067 94.071 18.66 93.471 18.66C92.7377 18.66 92.1777 18.4867 91.791 18.14C91.4177 17.7933 91.151 17.3267 90.991 16.74C90.8443 16.14 90.7643 15.4667 90.751 14.72C90.071 15.6933 89.3643 16.56 88.631 17.32C87.911 18.0667 87.1977 18.66 86.491 19.1C85.7843 19.54 85.1243 19.76 84.511 19.76ZM91.591 9.74C90.2843 10.3667 89.111 11.0867 88.071 11.9C87.031 12.7 86.2043 13.54 85.591 14.42C84.991 15.3 84.691 16.1467 84.691 16.96C84.691 17.1867 84.7977 17.3 85.011 17.3C85.2643 17.3 85.5977 17.1533 86.011 16.86C86.4377 16.5667 86.8977 16.18 87.391 15.7C87.8843 15.2067 88.3777 14.66 88.871 14.06C89.3643 13.4467 89.8243 12.82 90.251 12.18C90.6777 11.54 91.0177 10.9267 91.271 10.34C91.3643 10.1267 91.471 9.92667 91.591 9.74ZM99.7768 19.88C99.4435 19.88 99.1568 19.76 98.9168 19.52C98.6901 19.28 98.5768 18.9333 98.5768 18.48C98.5768 18.28 98.6035 17.9533 98.6568 17.5C98.7235 17.0333 98.8035 16.5 98.8968 15.9C99.0035 15.3 99.1035 14.6733 99.1968 14.02C99.3035 13.3667 99.3901 12.7467 99.4568 12.16C99.5368 11.5733 99.5901 11.0733 99.6168 10.66C99.6435 10.1533 99.7768 9.79333 100.017 9.58C100.257 9.35333 100.543 9.24 100.877 9.24C101.143 9.24 101.383 9.30667 101.597 9.44C101.823 9.56 101.963 9.82 102.017 10.22C102.083 10.6067 102.09 11.1667 102.037 11.9C102.623 10.8333 103.217 9.88 103.817 9.04C104.43 8.2 105.07 7.53333 105.737 7.04C106.843 6.2 107.843 5.78 108.737 5.78C109.243 5.78 109.577 5.89333 109.737 6.12C109.897 6.34667 109.977 6.58 109.977 6.82C109.977 6.98 109.937 7.12667 109.857 7.26C109.79 7.39333 109.643 7.53333 109.417 7.68C109.19 7.82667 108.843 8.02 108.377 8.26C107.75 8.58 107.13 9 106.517 9.52C105.917 10.04 105.317 10.7067 104.717 11.52C104.117 12.3333 103.51 13.3333 102.897 14.52C102.283 15.7067 101.65 17.12 100.997 18.76C100.877 19.2133 100.703 19.5133 100.477 19.66C100.263 19.8067 100.03 19.88 99.7768 19.88Z" fill="#0460EA"/>
</svg>
