<svg width="69" height="21" viewBox="0 0 69 21" fill="none" xmlns="http://www.w3.org/2000/svg">
<path d="M9.54531 15.42C9.95865 15.42 10.252 15.5333 10.4253 15.76C10.5986 15.9733 10.6853 16.2 10.6853 16.44C10.6853 16.7733 10.5186 17.1267 10.1853 17.5C9.85198 17.8733 9.41865 18.22 8.88531 18.54C8.36531 18.8467 7.80531 19.1 7.20531 19.3C6.60531 19.5 6.03198 19.6 5.48531 19.6C4.67198 19.6 3.89198 19.38 3.14531 18.94C2.41198 18.4867 1.81198 17.8533 1.34531 17.04C0.891979 16.2267 0.665313 15.26 0.665313 14.14C0.665313 13.22 0.838646 12.3067 1.18531 11.4C1.54531 10.4933 2.01865 9.62 2.60531 8.78C3.20531 7.94 3.85865 7.16 4.56531 6.44C5.28531 5.72 6.00531 5.09333 6.72531 4.56C7.45865 4.02667 8.13198 3.61333 8.74531 3.32C9.35865 3.01333 9.85198 2.86 10.2253 2.86C10.692 2.86 11.0386 2.98 11.2653 3.22C11.5053 3.44667 11.6253 3.76667 11.6253 4.18C11.6253 4.51333 11.5586 4.77333 11.4253 4.96C11.3053 5.13333 11.112 5.28667 10.8453 5.42C9.99198 5.86 9.12531 6.39333 8.24531 7.02C7.37865 7.64667 6.58531 8.34 5.86531 9.1C5.14531 9.84667 4.56531 10.6333 4.12531 11.46C3.68531 12.2867 3.46531 13.1267 3.46531 13.98C3.46531 14.9133 3.65198 15.62 4.02531 16.1C4.39865 16.58 4.90531 16.82 5.54531 16.82C5.86531 16.82 6.21198 16.7533 6.58531 16.62C6.95865 16.4733 7.32531 16.3067 7.68531 16.12C8.05865 15.9333 8.40531 15.7733 8.72531 15.64C9.05865 15.4933 9.33198 15.42 9.54531 15.42ZM15.3031 20.56C14.6898 20.56 14.2498 20.3867 13.9831 20.04C13.7165 19.6933 13.5831 19.1867 13.5831 18.52C13.5831 17.9067 13.6965 17.1067 13.9231 16.12C14.1631 15.12 14.4765 14.0067 14.8631 12.78C15.2631 11.54 15.7098 10.2667 16.2031 8.96C16.6965 7.64 17.2098 6.34667 17.7431 5.08C18.2765 3.8 18.7965 2.62667 19.3031 1.56C19.5431 1.09333 19.7965 0.773332 20.0631 0.6C20.3298 0.426666 20.6231 0.339999 20.9431 0.339999C21.2498 0.339999 21.5098 0.426666 21.7231 0.6C21.9365 0.759999 22.0431 1.02 22.0431 1.38C22.0431 1.46 21.9365 1.76667 21.7231 2.3C21.5098 2.82 21.2298 3.5 20.8831 4.34C20.5365 5.16667 20.1565 6.1 19.7431 7.14C19.3298 8.16667 18.9165 9.24 18.5031 10.36C18.0898 11.4667 17.7165 12.56 17.3831 13.64C17.0498 14.72 16.7831 15.72 16.5831 16.64C17.0498 16.0133 17.5498 15.32 18.0831 14.56C18.6298 13.7867 19.1831 13.02 19.7431 12.26C20.3165 11.4867 20.8765 10.78 21.4231 10.14C21.9831 9.5 22.5031 8.98667 22.9831 8.6C23.4631 8.21333 23.8831 8.02 24.2431 8.02C24.9098 8.02 25.4431 8.20667 25.8431 8.58C26.2565 8.94 26.4631 9.56667 26.4631 10.46C26.4631 10.8733 26.3831 11.3733 26.2231 11.96C26.0631 12.5333 25.8698 13.14 25.6431 13.78C25.4298 14.4067 25.2431 15.0133 25.0831 15.6C24.9231 16.1867 24.8431 16.7 24.8431 17.14C24.8431 17.38 24.9565 17.5 25.1831 17.5C25.8365 17.5 26.4965 17.36 27.1631 17.08C27.8431 16.8 28.4898 16.4533 29.1031 16.04C29.7298 15.6133 30.2965 15.1933 30.8031 14.78C31.3231 14.3533 31.7431 14 32.0631 13.72C32.2898 13.5067 32.4965 13.3667 32.6831 13.3C32.8698 13.22 33.0431 13.18 33.2031 13.18C33.7498 13.18 34.0231 13.4533 34.0231 14C34.0231 14.1067 34.0031 14.24 33.9631 14.4C33.9231 14.5467 33.7965 14.7333 33.5831 14.96C33.3698 15.1867 33.0498 15.5067 32.6231 15.92C32.1965 16.3333 31.6965 16.7733 31.1231 17.24C30.5631 17.7067 29.9498 18.1533 29.2831 18.58C28.6298 18.9933 27.9565 19.3333 27.2631 19.6C26.5698 19.8667 25.8965 20 25.2431 20C24.2565 20 23.4965 19.72 22.9631 19.16C22.4298 18.6133 22.1631 17.8667 22.1631 16.92C22.1631 16.2667 22.2965 15.4467 22.5631 14.46C22.8298 13.46 23.1298 12.44 23.4631 11.4C22.9965 11.8533 22.5098 12.3933 22.0031 13.02C21.4965 13.6333 20.9831 14.2867 20.4631 14.98C19.9431 15.66 19.4298 16.3333 18.9231 17C18.4298 17.6533 17.9565 18.2533 17.5031 18.8C17.0498 19.3333 16.6365 19.76 16.2631 20.08C15.8898 20.4 15.5698 20.56 15.3031 20.56ZM33.3841 19.76C32.9574 19.76 32.5707 19.64 32.2241 19.4C31.8774 19.1733 31.6041 18.8733 31.4041 18.5C31.2041 18.1133 31.1041 17.7 31.1041 17.26C31.1041 16.4333 31.2841 15.6267 31.6441 14.84C32.0174 14.0533 32.5041 13.3067 33.1041 12.6C33.7041 11.8933 34.3574 11.2467 35.0641 10.66C35.7841 10.06 36.4974 9.54667 37.2041 9.12C37.9241 8.69333 38.5774 8.36 39.1641 8.12C39.7641 7.88 40.2307 7.76 40.5641 7.76C40.9507 7.76 41.2641 7.84667 41.5041 8.02C41.7574 8.18 41.8841 8.43333 41.8841 8.78C41.8841 8.88667 41.8574 8.97333 41.8041 9.04C41.9774 9.08 42.1174 9.18 42.2241 9.34C42.3307 9.5 42.3841 9.74 42.3841 10.06C42.3841 10.1933 42.3507 10.54 42.2841 11.1C42.2174 11.66 42.1441 12.34 42.0641 13.14C41.9974 13.94 41.9641 14.7733 41.9641 15.64C41.9641 15.7733 41.9841 15.8933 42.0241 16C42.0641 16.0933 42.1507 16.14 42.2841 16.14C42.8174 16.14 43.3574 16.0333 43.9041 15.82C44.4641 15.5933 45.0041 15.32 45.5241 15C46.0574 14.6667 46.5374 14.34 46.9641 14.02C47.4041 13.6867 47.7707 13.4133 48.0641 13.2C48.3707 12.9733 48.5707 12.86 48.6641 12.86C49.1174 12.86 49.3441 13.0867 49.3441 13.54C49.3441 13.66 49.1974 13.9133 48.9041 14.3C48.6241 14.6733 48.2374 15.1067 47.7441 15.6C47.2507 16.08 46.6974 16.56 46.0841 17.04C45.4841 17.5067 44.8574 17.8933 44.2041 18.2C43.5641 18.5067 42.9441 18.66 42.3441 18.66C41.6107 18.66 41.0507 18.4867 40.6641 18.14C40.2907 17.7933 40.0241 17.3267 39.8641 16.74C39.7174 16.14 39.6374 15.4667 39.6241 14.72C38.9441 15.6933 38.2374 16.56 37.5041 17.32C36.7841 18.0667 36.0707 18.66 35.3641 19.1C34.6574 19.54 33.9974 19.76 33.3841 19.76ZM40.4641 9.74C39.1574 10.3667 37.9841 11.0867 36.9441 11.9C35.9041 12.7 35.0774 13.54 34.4641 14.42C33.8641 15.3 33.5641 16.1467 33.5641 16.96C33.5641 17.1867 33.6707 17.3 33.8841 17.3C34.1374 17.3 34.4707 17.1533 34.8841 16.86C35.3107 16.5667 35.7707 16.18 36.2641 15.7C36.7574 15.2067 37.2507 14.66 37.7441 14.06C38.2374 13.4467 38.6974 12.82 39.1241 12.18C39.5507 11.54 39.8907 10.9267 40.1441 10.34C40.2374 10.1267 40.3441 9.92667 40.4641 9.74ZM62.0628 8.92C62.0628 9.08 62.0095 9.22 61.9028 9.34C61.7961 9.46 61.6628 9.55333 61.5028 9.62C61.2761 9.71333 60.8828 9.83333 60.3228 9.98C59.7628 10.1267 59.0828 10.2933 58.2828 10.48C57.4961 10.6667 56.6495 10.86 55.7428 11.06C54.8361 11.2467 53.9295 11.4267 53.0228 11.6C52.6761 12.88 52.3228 14.2 51.9628 15.56C51.6028 16.9067 51.2428 18.2333 50.8828 19.54C50.7495 20.0067 50.5895 20.36 50.4028 20.6C50.2161 20.8533 49.8961 20.98 49.4428 20.98C48.9495 20.98 48.6161 20.82 48.4428 20.5C48.2828 20.1933 48.2628 19.7733 48.3828 19.24C48.7295 17.7867 49.0495 16.4333 49.3428 15.18C49.6495 13.9267 49.8961 12.9133 50.0828 12.14C49.2828 12.2733 48.5828 12.38 47.9828 12.46C47.3828 12.5267 46.9561 12.5533 46.7028 12.54C46.4228 12.5133 46.1895 12.4 46.0028 12.2C45.8161 12 45.7295 11.7533 45.7428 11.46C45.7695 11.1933 45.8895 10.9667 46.1028 10.78C46.3161 10.58 46.5695 10.46 46.8628 10.42C47.2761 10.38 47.8095 10.32 48.4628 10.24C49.1161 10.16 49.8361 10.0667 50.6228 9.96C50.7961 9.28 50.9961 8.58 51.2228 7.86C51.4495 7.12667 51.6828 6.42667 51.9228 5.76C52.1761 5.08 52.4161 4.48667 52.6428 3.98C52.8695 3.47333 53.0761 3.10667 53.2628 2.88C53.4095 2.70667 53.5895 2.57333 53.8028 2.48C54.0295 2.38667 54.2495 2.34 54.4628 2.34C54.7428 2.34 54.9695 2.44 55.1428 2.64C55.3161 2.84 55.4028 3.07333 55.4028 3.34C55.4028 3.44667 55.3961 3.56 55.3828 3.68C55.3695 3.78667 55.3428 3.89333 55.3028 4C55.0495 4.66667 54.7761 5.47333 54.4828 6.42C54.2028 7.36667 53.9095 8.40667 53.6028 9.54C54.6028 9.39333 55.5828 9.24667 56.5428 9.1C57.5161 8.94 58.3961 8.79333 59.1828 8.66C59.9828 8.51333 60.6228 8.38667 61.1028 8.28C61.3695 8.18667 61.5961 8.20667 61.7828 8.34C61.9695 8.46 62.0628 8.65333 62.0628 8.92ZM58.4652 19.52C58.0518 19.52 57.6652 19.3933 57.3052 19.14C56.9452 18.8867 56.7652 18.4733 56.7652 17.9C56.7652 17.46 56.8785 17.1067 57.1052 16.84C57.3318 16.56 57.5918 16.3533 57.8852 16.22C58.1918 16.0867 58.4518 16.02 58.6652 16.02C58.8918 16.02 59.1452 16.0733 59.4252 16.18C59.7185 16.2733 59.9718 16.4533 60.1852 16.72C60.3985 16.9733 60.5052 17.34 60.5052 17.82C60.5052 18.2867 60.3052 18.6867 59.9052 19.02C59.5185 19.3533 59.0385 19.52 58.4652 19.52ZM62.5863 19.52C62.1729 19.52 61.7863 19.3933 61.4263 19.14C61.0663 18.8867 60.8862 18.4733 60.8862 17.9C60.8862 17.46 60.9996 17.1067 61.2263 16.84C61.4529 16.56 61.7129 16.3533 62.0063 16.22C62.3129 16.0867 62.5729 16.02 62.7863 16.02C63.0129 16.02 63.2663 16.0733 63.5462 16.18C63.8396 16.2733 64.0929 16.4533 64.3063 16.72C64.5196 16.9733 64.6263 17.34 64.6263 17.82C64.6263 18.2867 64.4263 18.6867 64.0263 19.02C63.6396 19.3533 63.1596 19.52 62.5863 19.52ZM66.7073 19.52C66.294 19.52 65.9073 19.3933 65.5473 19.14C65.1873 18.8867 65.0073 18.4733 65.0073 17.9C65.0073 17.46 65.1207 17.1067 65.3473 16.84C65.574 16.56 65.834 16.3533 66.1273 16.22C66.434 16.0867 66.694 16.02 66.9073 16.02C67.134 16.02 67.3873 16.0733 67.6673 16.18C67.9607 16.2733 68.214 16.4533 68.4273 16.72C68.6407 16.9733 68.7473 17.34 68.7473 17.82C68.7473 18.2867 68.5473 18.6867 68.1473 19.02C67.7607 19.3533 67.2807 19.52 66.7073 19.52Z" fill="#9A1595"/>
</svg>
