<svg width="177" height="25" viewBox="0 0 177 25" fill="none" xmlns="http://www.w3.org/2000/svg">
<path d="M16.471 8.92C16.471 9.08 16.4177 9.22 16.311 9.34C16.2043 9.46 16.071 9.55333 15.911 9.62C15.6843 9.71333 15.291 9.83333 14.731 9.98C14.171 10.1267 13.491 10.2933 12.691 10.48C11.9043 10.6667 11.0577 10.86 10.151 11.06C9.24435 11.2467 8.33768 11.4267 7.43102 11.6C7.08435 12.88 6.73102 14.2 6.37102 15.56C6.01102 16.9067 5.65102 18.2333 5.29102 19.54C5.15768 20.0067 4.99768 20.36 4.81102 20.6C4.62435 20.8533 4.30435 20.98 3.85102 20.98C3.35768 20.98 3.02435 20.82 2.85102 20.5C2.69102 20.1933 2.67102 19.7733 2.79102 19.24C3.13768 17.7867 3.45768 16.4333 3.75102 15.18C4.05768 13.9267 4.30435 12.9133 4.49102 12.14C3.69102 12.2733 2.99102 12.38 2.39102 12.46C1.79102 12.5267 1.36435 12.5533 1.11102 12.54C0.831016 12.5133 0.597682 12.4 0.411016 12.2C0.224349 12 0.137682 11.7533 0.151016 11.46C0.177682 11.1933 0.297682 10.9667 0.511016 10.78C0.724349 10.58 0.977682 10.46 1.27102 10.42C1.68435 10.38 2.21768 10.32 2.87102 10.24C3.52435 10.16 4.24435 10.0667 5.03102 9.96C5.20435 9.28 5.40435 8.58 5.63102 7.86C5.85768 7.12667 6.09102 6.42667 6.33102 5.76C6.58435 5.08 6.82435 4.48667 7.05102 3.98C7.27768 3.47333 7.48435 3.10667 7.67102 2.88C7.81768 2.70667 7.99768 2.57333 8.21102 2.48C8.43768 2.38667 8.65768 2.34 8.87102 2.34C9.15102 2.34 9.37768 2.44 9.55102 2.64C9.72435 2.84 9.81102 3.07333 9.81102 3.34C9.81102 3.44667 9.80435 3.56 9.79102 3.68C9.77768 3.78667 9.75102 3.89333 9.71102 4C9.45768 4.66667 9.18435 5.47333 8.89102 6.42C8.61102 7.36667 8.31768 8.40667 8.01102 9.54C9.01102 9.39333 9.99102 9.24667 10.951 9.1C11.9243 8.94 12.8043 8.79333 13.591 8.66C14.391 8.51333 15.031 8.38667 15.511 8.28C15.7777 8.18667 16.0043 8.20667 16.191 8.34C16.3777 8.46 16.471 8.65333 16.471 8.92ZM14.2962 19.76C13.8695 19.76 13.4828 19.64 13.1362 19.4C12.7895 19.1733 12.5162 18.8733 12.3162 18.5C12.1162 18.1133 12.0162 17.7 12.0162 17.26C12.0162 16.4333 12.1962 15.6267 12.5562 14.84C12.9295 14.0533 13.4162 13.3067 14.0162 12.6C14.6162 11.8933 15.2695 11.2467 15.9762 10.66C16.6962 10.06 17.4095 9.54667 18.1162 9.12C18.8362 8.69333 19.4895 8.36 20.0762 8.12C20.6762 7.88 21.1428 7.76 21.4762 7.76C21.8628 7.76 22.1762 7.84667 22.4162 8.02C22.6695 8.18 22.7962 8.43333 22.7962 8.78C22.7962 8.88667 22.7695 8.97333 22.7162 9.04C22.8895 9.08 23.0295 9.18 23.1362 9.34C23.2428 9.5 23.2962 9.74 23.2962 10.06C23.2962 10.1933 23.2628 10.54 23.1962 11.1C23.1295 11.66 23.0562 12.34 22.9762 13.14C22.9095 13.94 22.8762 14.7733 22.8762 15.64C22.8762 15.7733 22.8962 15.8933 22.9362 16C22.9762 16.0933 23.0628 16.14 23.1962 16.14C23.7295 16.14 24.2695 16.0333 24.8162 15.82C25.3762 15.5933 25.9162 15.32 26.4362 15C26.9695 14.6667 27.4495 14.34 27.8762 14.02C28.3162 13.6867 28.6828 13.4133 28.9762 13.2C29.2828 12.9733 29.4828 12.86 29.5762 12.86C30.0295 12.86 30.2562 13.0867 30.2562 13.54C30.2562 13.66 30.1095 13.9133 29.8162 14.3C29.5362 14.6733 29.1495 15.1067 28.6562 15.6C28.1628 16.08 27.6095 16.56 26.9962 17.04C26.3962 17.5067 25.7695 17.8933 25.1162 18.2C24.4762 18.5067 23.8562 18.66 23.2562 18.66C22.5228 18.66 21.9628 18.4867 21.5762 18.14C21.2028 17.7933 20.9362 17.3267 20.7762 16.74C20.6295 16.14 20.5495 15.4667 20.5362 14.72C19.8562 15.6933 19.1495 16.56 18.4162 17.32C17.6962 18.0667 16.9828 18.66 16.2762 19.1C15.5695 19.54 14.9095 19.76 14.2962 19.76ZM21.3762 9.74C20.0695 10.3667 18.8962 11.0867 17.8562 11.9C16.8162 12.7 15.9895 13.54 15.3762 14.42C14.7762 15.3 14.4762 16.1467 14.4762 16.96C14.4762 17.1867 14.5828 17.3 14.7962 17.3C15.0495 17.3 15.3828 17.1533 15.7962 16.86C16.2228 16.5667 16.6828 16.18 17.1762 15.7C17.6695 15.2067 18.1628 14.66 18.6562 14.06C19.1495 13.4467 19.6095 12.82 20.0362 12.18C20.4628 11.54 20.8028 10.9267 21.0562 10.34C21.1495 10.1267 21.2562 9.92667 21.3762 9.74ZM30.5035 20.02C29.9302 20.02 29.5235 19.94 29.2835 19.78C29.0568 19.62 28.9435 19.3867 28.9435 19.08C28.9435 18.8133 29.0368 18.5867 29.2235 18.4C29.4102 18.2 29.8235 18 30.4635 17.8C31.2102 17.5733 31.9168 17.3133 32.5835 17.02C33.2635 16.7133 33.8168 16.38 34.2435 16.02C34.6835 15.66 34.9035 15.28 34.9035 14.88C34.9035 14.6133 34.8102 14.42 34.6235 14.3C34.4502 14.18 34.2435 14.12 34.0035 14.12C33.8035 14.12 33.5102 14.1533 33.1235 14.22C32.7502 14.2733 32.3368 14.3467 31.8835 14.44C31.4302 14.52 30.9902 14.5933 30.5635 14.66C30.1502 14.7133 29.7968 14.74 29.5035 14.74C28.8102 14.74 28.2968 14.5867 27.9635 14.28C27.6302 13.96 27.4635 13.5533 27.4635 13.06C27.4635 12.7933 27.6035 12.4267 27.8835 11.96C28.1635 11.4933 28.5368 10.98 29.0035 10.42C29.4702 9.86 29.9902 9.3 30.5635 8.74C31.1368 8.18 31.7168 7.66667 32.3035 7.2C32.9035 6.72 33.4702 6.34 34.0035 6.06C34.5368 5.76667 34.9902 5.62 35.3635 5.62C35.7902 5.62 36.1302 5.75333 36.3835 6.02C36.6502 6.28667 36.7835 6.64667 36.7835 7.1C36.7835 7.31333 36.7635 7.54667 36.7235 7.8C36.6835 8.04 36.5835 8.26 36.4235 8.46C36.2635 8.64667 36.0168 8.78 35.6835 8.86C35.3502 8.94 34.8968 8.92667 34.3235 8.82C33.8702 9.15333 33.3968 9.52 32.9035 9.92C32.4235 10.3067 31.9702 10.7133 31.5435 11.14C31.1168 11.5533 30.7635 11.96 30.4835 12.36C30.9768 12.2 31.5368 12.0733 32.1635 11.98C32.7902 11.8733 33.4235 11.82 34.0635 11.82C34.8368 11.82 35.4635 11.96 35.9435 12.24C36.4368 12.5067 36.7968 12.8667 37.0235 13.32C37.2635 13.7733 37.3835 14.2733 37.3835 14.82C37.3835 15.4333 37.1835 16.0467 36.7835 16.66C36.3835 17.2733 35.8502 17.8333 35.1835 18.34C34.5168 18.8467 33.7768 19.2533 32.9635 19.56C32.1502 19.8667 31.3302 20.02 30.5035 20.02ZM50.5326 20.46C49.6259 20.46 48.7859 20.2667 48.0126 19.88C47.2392 19.5067 46.5326 19.0133 45.8926 18.4C45.2526 17.7733 44.6792 17.0933 44.1726 16.36C43.6792 15.6133 43.2592 14.88 42.9126 14.16C42.7526 14.8933 42.6059 15.52 42.4726 16.04C42.3526 16.56 42.2526 16.9933 42.1726 17.34C42.1059 17.6067 42.0326 17.8667 41.9526 18.12C41.8859 18.3733 41.7792 18.58 41.6326 18.74C41.4859 18.9 41.2792 18.98 41.0126 18.98C40.4392 18.98 40.0726 18.7867 39.9126 18.4C39.7526 18 39.6726 17.4933 39.6726 16.88C39.6726 16.3333 39.7592 15.6133 39.9326 14.72C40.1192 13.8267 40.3659 12.8267 40.6726 11.72C40.9792 10.6133 41.3326 9.47333 41.7326 8.3C42.1459 7.11333 42.5859 5.96 43.0526 4.84C43.5192 3.70667 43.9859 2.68 44.4526 1.76C44.7459 1.2 45.0059 0.846666 45.2326 0.7C45.4592 0.539999 45.7259 0.459999 46.0326 0.459999C46.3392 0.459999 46.5726 0.539999 46.7326 0.7C46.8926 0.859999 46.9726 1.07333 46.9726 1.34C46.9726 1.51333 46.9326 1.68667 46.8526 1.86C46.7726 2.03333 46.6859 2.24667 46.5926 2.5C46.2859 3.18 45.9659 3.97333 45.6326 4.88C45.2992 5.77333 44.9792 6.7 44.6726 7.66C44.3659 8.60667 44.0926 9.50667 43.8526 10.36C44.5059 9.97333 45.2326 9.6 46.0326 9.24C46.8326 8.86667 47.6392 8.53333 48.4526 8.24C49.2792 7.93333 50.0526 7.69333 50.7726 7.52C51.4926 7.34667 52.0992 7.26 52.5926 7.26C52.9792 7.26 53.2726 7.37333 53.4726 7.6C53.6726 7.82667 53.7726 8.07333 53.7726 8.34C53.7726 8.54 53.7126 8.74 53.5926 8.94C53.4726 9.14 53.2192 9.31333 52.8326 9.46C51.5526 9.88667 50.2792 10.32 49.0126 10.76C47.7592 11.2 46.3659 11.72 44.8326 12.32C45.1526 12.9467 45.5259 13.5933 45.9526 14.26C46.3792 14.9133 46.8392 15.5267 47.3326 16.1C47.8259 16.66 48.3326 17.12 48.8526 17.48C49.3726 17.8267 49.8859 18 50.3926 18C51.1392 18 51.8592 17.8533 52.5526 17.56C53.2459 17.2533 53.8859 16.8867 54.4726 16.46C55.0592 16.02 55.5726 15.5933 56.0126 15.18C56.4659 14.7667 56.8192 14.4467 57.0726 14.22C57.2192 14.0733 57.3592 13.9667 57.4926 13.9C57.6392 13.8333 57.8192 13.8 58.0326 13.8C58.2859 13.8 58.4792 13.88 58.6126 14.04C58.7592 14.1867 58.8259 14.38 58.8126 14.62C58.7992 14.8467 58.6859 15.0733 58.4726 15.3C58.2992 15.4867 58.0259 15.7867 57.6526 16.2C57.2926 16.6 56.8526 17.0467 56.3326 17.54C55.8259 18.02 55.2592 18.4867 54.6326 18.94C54.0192 19.38 53.3659 19.74 52.6726 20.02C51.9792 20.3133 51.2659 20.46 50.5326 20.46ZM57.8945 12.3C57.3745 12.3 56.9478 12.2 56.6145 12C56.2945 11.8 56.1345 11.4667 56.1345 11C56.1345 10.8667 56.3278 10.7 56.7145 10.5C57.1011 10.2867 57.6278 10.08 58.2945 9.88C58.9745 9.66667 59.7545 9.49333 60.6345 9.36C61.5145 9.21333 62.4411 9.14 63.4145 9.14C64.2278 9.14 64.7878 9.24 65.0945 9.44C65.4145 9.64 65.5745 9.97333 65.5745 10.44C65.5745 10.6267 65.3611 10.8267 64.9345 11.04C64.5078 11.2533 63.9278 11.46 63.1945 11.66C62.4611 11.8467 61.6345 12 60.7145 12.12C59.8078 12.24 58.8678 12.3 57.8945 12.3ZM85.7938 18.54C85.7138 19.26 85.2872 19.62 84.5138 19.62C84.1138 19.62 83.7938 19.5 83.5538 19.26C83.3272 19.02 83.2138 18.6733 83.2138 18.22C83.2138 17.4467 83.2472 16.62 83.3138 15.74C83.3938 14.8467 83.4872 13.9467 83.5938 13.04C83.7138 12.1333 83.8272 11.2667 83.9338 10.44C83.4538 11.1333 82.9472 11.8467 82.4138 12.58C81.8805 13.3133 81.3472 14.0267 80.8138 14.72C80.2805 15.4133 79.7672 16.04 79.2738 16.6C78.7938 17.1467 78.3538 17.5867 77.9538 17.92C77.5538 18.24 77.2205 18.4 76.9538 18.4C76.3138 18.4 75.7605 18.1667 75.2938 17.7C74.8272 17.22 74.5938 16.6133 74.5938 15.88C74.5938 15.6267 74.6205 15.2867 74.6738 14.86C74.7272 14.42 74.7938 13.9533 74.8738 13.46C74.9538 12.9667 75.0205 12.5 75.0738 12.06C75.1272 11.62 75.1538 11.2733 75.1538 11.02C75.1538 11.02 75.1538 11.0067 75.1538 10.98C75.1672 10.9133 75.1538 10.88 75.1138 10.88C75.0605 10.88 74.9138 11.06 74.6738 11.42C74.4338 11.7667 74.1405 12.22 73.7938 12.78C73.4472 13.34 73.0805 13.9267 72.6938 14.54C72.3205 15.1533 71.9672 15.7267 71.6338 16.26C71.3138 16.7933 71.0472 17.2067 70.8338 17.5C70.5405 17.9533 70.2672 18.24 70.0138 18.36C69.7605 18.48 69.4672 18.54 69.1338 18.54C68.6672 18.54 68.3005 18.3867 68.0338 18.08C67.7805 17.76 67.6538 17.3133 67.6538 16.74C67.6538 16.5 67.6938 16.1267 67.7738 15.62C67.8672 15.1133 67.9805 14.5533 68.1138 13.94C68.2472 13.3133 68.3805 12.7067 68.5138 12.12C68.6605 11.52 68.7872 11.0133 68.8938 10.6C69.0138 10.0533 69.1805 9.67333 69.3938 9.46C69.6205 9.23333 69.9072 9.12 70.2538 9.12C71.0672 9.12 71.4738 9.52 71.4738 10.32C71.4738 10.4667 71.4272 10.7067 71.3338 11.04C71.2405 11.3733 71.1272 11.76 70.9938 12.2C70.8605 12.64 70.7205 13.0933 70.5738 13.56C70.4272 14.0133 70.3072 14.44 70.2138 14.84C70.5338 14.28 70.8805 13.68 71.2538 13.04C71.6272 12.4 72.0072 11.7733 72.3938 11.16C72.7938 10.5467 73.1872 9.98667 73.5738 9.48C73.9738 8.97333 74.3672 8.57333 74.7538 8.28C75.1405 7.97333 75.5072 7.82 75.8538 7.82C76.2005 7.82 76.5405 7.94667 76.8738 8.2C77.2072 8.44 77.4805 8.75333 77.6938 9.14C77.9205 9.51333 78.0338 9.91333 78.0338 10.34C78.0338 10.74 77.9805 11.22 77.8738 11.78C77.7672 12.34 77.6472 12.9267 77.5138 13.54C77.3805 14.1533 77.2872 14.7533 77.2338 15.34C77.6872 14.8333 78.1672 14.26 78.6738 13.62C79.1805 12.9667 79.7005 12.2933 80.2338 11.6C80.7672 10.9067 81.2872 10.2333 81.7938 9.58C82.3138 8.92667 82.7938 8.33333 83.2338 7.8C83.6872 7.26667 84.0872 6.84667 84.4338 6.54C84.7805 6.22 85.0472 6.06 85.2338 6.06C85.7805 6.06 86.2072 6.20667 86.5138 6.5C86.8338 6.78 86.9938 7.27333 86.9938 7.98C86.9938 8.42 86.9605 8.99333 86.8938 9.7C86.8405 10.4067 86.7605 11.1733 86.6538 12C86.5605 12.8133 86.4538 13.64 86.3338 14.48C86.2272 15.3067 86.1272 16.0733 86.0338 16.78C85.9405 17.4867 85.8605 18.0733 85.7938 18.54ZM91.9534 19.08C91.1134 19.08 90.5 18.8267 90.1134 18.32C89.74 17.8 89.5534 17.14 89.5534 16.34C89.5534 15.58 89.72 14.8467 90.0534 14.14C90.3867 13.42 90.8334 12.7333 91.3934 12.08C91.9534 11.4267 92.58 10.82 93.2734 10.26C93.9667 9.68667 94.6667 9.17333 95.3734 8.72C96.0934 8.25333 96.78 7.86 97.4334 7.54C98.0867 7.20667 98.6534 6.95333 99.1334 6.78C99.6134 6.60667 99.96 6.52 100.173 6.52C100.4 6.52 100.587 6.58 100.733 6.7C100.893 6.80667 100.973 7.02 100.973 7.34C100.973 7.67333 100.84 7.97333 100.573 8.24C100.307 8.50667 99.98 8.73333 99.5934 8.92C99.0467 9.18667 98.4267 9.51333 97.7334 9.9C97.0534 10.2733 96.3667 10.7 95.6734 11.18C94.98 11.66 94.34 12.1733 93.7534 12.72C93.18 13.2667 92.7134 13.84 92.3534 14.44C91.9934 15.0267 91.8134 15.6267 91.8134 16.24C91.8134 16.3733 91.84 16.48 91.8934 16.56C91.9467 16.64 92.06 16.68 92.2334 16.68C92.46 16.68 92.76 16.5733 93.1334 16.36C93.5067 16.1333 93.9134 15.84 94.3534 15.48C94.7934 15.1067 95.2334 14.7 95.6734 14.26C96.1134 13.8067 96.52 13.3533 96.8934 12.9C97.28 12.4333 97.6 12 97.8534 11.6C98.04 11.2933 98.26 11.04 98.5134 10.84C98.78 10.64 99.0534 10.54 99.3334 10.54C99.56 10.54 99.7467 10.6067 99.8934 10.74C100.053 10.86 100.133 11.08 100.133 11.4C100.133 11.5067 100.127 11.76 100.113 12.16C100.1 12.5467 100.08 13.02 100.053 13.58C100.04 14.1267 100.033 14.7 100.033 15.3C100.033 15.82 100.08 16.2733 100.173 16.66C100.28 17.0333 100.5 17.22 100.833 17.22C101.233 17.22 101.647 17.08 102.073 16.8C102.5 16.5067 102.913 16.14 103.313 15.7C103.727 15.2467 104.107 14.7667 104.453 14.26C104.8 13.7533 105.093 13.2733 105.333 12.82C105.587 12.3533 105.767 11.98 105.873 11.7C106.047 10.5267 106.273 9.60667 106.553 8.94C106.833 8.26 107.14 7.78 107.473 7.5C107.82 7.22 108.153 7.08 108.473 7.08C108.833 7.08 109.133 7.16667 109.373 7.34C109.627 7.51333 109.753 7.92 109.753 8.56C109.753 8.89333 109.613 9.39333 109.333 10.06C109.053 10.7267 108.68 11.46 108.213 12.26C108.107 12.86 108.04 13.48 108.013 14.12C107.987 14.76 108.027 15.36 108.133 15.92C108.493 15.6667 108.86 15.2933 109.233 14.8C109.607 14.2933 109.98 13.7333 110.353 13.12C110.727 12.4933 111.1 11.8667 111.473 11.24C111.847 10.6 112.213 10.0133 112.573 9.48C112.947 8.94667 113.307 8.52 113.653 8.2C114.013 7.86667 114.367 7.7 114.713 7.7C115.073 7.7 115.4 7.76667 115.693 7.9C116 8.02 116.253 8.26 116.453 8.62C116.667 8.96667 116.827 9.46667 116.933 10.12C117.053 10.76 117.113 11.6 117.113 12.64C117.113 13.1867 117.167 13.72 117.273 14.24C117.38 14.7467 117.56 15.1667 117.813 15.5C118.067 15.82 118.42 15.98 118.873 15.98C119.607 15.98 120.26 15.86 120.833 15.62C121.407 15.3667 121.907 15.0733 122.333 14.74C122.76 14.4067 123.113 14.12 123.393 13.88C123.687 13.6267 123.913 13.5 124.073 13.5C124.34 13.5 124.54 13.58 124.673 13.74C124.82 13.8867 124.893 14.0733 124.893 14.3C124.893 14.4333 124.78 14.6667 124.553 15C124.34 15.32 124.04 15.68 123.653 16.08C123.28 16.4667 122.84 16.8467 122.333 17.22C121.84 17.58 121.313 17.88 120.753 18.12C120.193 18.36 119.627 18.48 119.053 18.48C118.013 18.48 117.153 18.2933 116.473 17.92C115.807 17.5333 115.307 16.8933 114.973 16C114.653 15.0933 114.493 13.8733 114.493 12.34C114.493 12.2467 114.493 12.16 114.493 12.08C114.493 12 114.493 11.92 114.493 11.84C114.493 11.5067 114.487 11.22 114.473 10.98C114.473 10.74 114.44 10.5533 114.373 10.42C114.16 10.78 113.9 11.2333 113.593 11.78C113.3 12.3267 112.973 12.9133 112.613 13.54C112.253 14.1667 111.867 14.7867 111.453 15.4C111.053 16.0133 110.647 16.5733 110.233 17.08C109.82 17.5867 109.407 17.9933 108.993 18.3C108.593 18.6067 108.213 18.76 107.853 18.76C107.587 18.76 107.293 18.6267 106.973 18.36C106.667 18.0933 106.407 17.7333 106.193 17.28C105.98 16.8133 105.873 16.2867 105.873 15.7C105.3 16.42 104.707 17.08 104.093 17.68C103.48 18.2667 102.873 18.7333 102.273 19.08C101.687 19.44 101.127 19.62 100.593 19.62C100.153 19.62 99.7267 19.4933 99.3134 19.24C98.9134 18.9867 98.5667 18.5333 98.2734 17.88C97.98 17.2267 97.7934 16.3 97.7134 15.1C97.0867 15.8867 96.4334 16.58 95.7534 17.18C95.0867 17.78 94.4267 18.2467 93.7734 18.58C93.1334 18.9133 92.5267 19.08 91.9534 19.08ZM124.726 19.76C124.299 19.76 123.913 19.64 123.566 19.4C123.219 19.1733 122.946 18.8733 122.746 18.5C122.546 18.1133 122.446 17.7 122.446 17.26C122.446 16.4333 122.626 15.6267 122.986 14.84C123.359 14.0533 123.846 13.3067 124.446 12.6C125.046 11.8933 125.699 11.2467 126.406 10.66C127.126 10.06 127.839 9.54667 128.546 9.12C129.266 8.69333 129.919 8.36 130.506 8.12C131.106 7.88 131.573 7.76 131.906 7.76C132.293 7.76 132.606 7.84667 132.846 8.02C133.099 8.18 133.226 8.43333 133.226 8.78C133.226 8.88667 133.199 8.97333 133.146 9.04C133.319 9.08 133.459 9.18 133.566 9.34C133.673 9.5 133.726 9.74 133.726 10.06C133.726 10.1933 133.693 10.54 133.626 11.1C133.559 11.66 133.486 12.34 133.406 13.14C133.339 13.94 133.306 14.7733 133.306 15.64C133.306 15.7733 133.326 15.8933 133.366 16C133.406 16.0933 133.493 16.14 133.626 16.14C134.159 16.14 134.699 16.0333 135.246 15.82C135.806 15.5933 136.346 15.32 136.866 15C137.399 14.6667 137.879 14.34 138.306 14.02C138.746 13.6867 139.113 13.4133 139.406 13.2C139.713 12.9733 139.913 12.86 140.006 12.86C140.459 12.86 140.686 13.0867 140.686 13.54C140.686 13.66 140.539 13.9133 140.246 14.3C139.966 14.6733 139.579 15.1067 139.086 15.6C138.593 16.08 138.039 16.56 137.426 17.04C136.826 17.5067 136.199 17.8933 135.546 18.2C134.906 18.5067 134.286 18.66 133.686 18.66C132.953 18.66 132.393 18.4867 132.006 18.14C131.633 17.7933 131.366 17.3267 131.206 16.74C131.059 16.14 130.979 15.4667 130.966 14.72C130.286 15.6933 129.579 16.56 128.846 17.32C128.126 18.0667 127.413 18.66 126.706 19.1C125.999 19.54 125.339 19.76 124.726 19.76ZM131.806 9.74C130.499 10.3667 129.326 11.0867 128.286 11.9C127.246 12.7 126.419 13.54 125.806 14.42C125.206 15.3 124.906 16.1467 124.906 16.96C124.906 17.1867 125.013 17.3 125.226 17.3C125.479 17.3 125.813 17.1533 126.226 16.86C126.653 16.5667 127.113 16.18 127.606 15.7C128.099 15.2067 128.593 14.66 129.086 14.06C129.579 13.4467 130.039 12.82 130.466 12.18C130.893 11.54 131.233 10.9267 131.486 10.34C131.579 10.1267 131.686 9.92667 131.806 9.74ZM140.453 24.76C139.453 24.76 138.693 24.6867 138.173 24.54C137.667 24.3933 137.32 24.2 137.133 23.96C136.947 23.7333 136.853 23.5 136.853 23.26C136.853 22.9267 136.96 22.6533 137.173 22.44C137.4 22.2267 137.693 22.12 138.053 22.12C138.293 22.12 138.64 22.1533 139.093 22.22C139.547 22.2867 140 22.32 140.453 22.32C141.787 22.32 142.887 22 143.753 21.36C144.62 20.7333 145.3 19.78 145.793 18.5C146.287 17.2067 146.627 15.58 146.813 13.62C145.893 15.1267 144.873 16.3333 143.753 17.24C142.647 18.1467 141.493 18.6 140.293 18.6C138.88 18.6 138.173 17.9067 138.173 16.52C138.173 15.8533 138.353 15.1533 138.713 14.42C139.073 13.6867 139.553 12.96 140.153 12.24C140.753 11.52 141.413 10.84 142.133 10.2C142.853 9.54667 143.573 8.97333 144.293 8.48C145.027 7.98667 145.707 7.6 146.333 7.32C146.96 7.02667 147.467 6.88 147.853 6.88C148.16 6.88 148.427 6.93333 148.653 7.04C148.893 7.14667 149.08 7.36 149.213 7.68C149.347 7.98667 149.413 8.44 149.413 9.04C149.413 10.7067 149.353 12.32 149.233 13.88C149.113 15.4267 148.88 16.86 148.533 18.18C148.187 19.5 147.68 20.6533 147.013 21.64C146.36 22.6267 145.5 23.3933 144.433 23.94C143.367 24.4867 142.04 24.76 140.453 24.76ZM140.733 16.12C140.733 16.2133 140.773 16.26 140.853 16.26C141.12 16.26 141.48 16.12 141.933 15.84C142.387 15.5467 142.873 15.16 143.393 14.68C143.927 14.1867 144.447 13.64 144.953 13.04C145.46 12.4267 145.907 11.7933 146.293 11.14C146.693 10.4867 146.98 9.85333 147.153 9.24C146.46 9.64 145.74 10.1067 144.993 10.64C144.26 11.16 143.567 11.72 142.913 12.32C142.273 12.92 141.747 13.5467 141.333 14.2C140.933 14.84 140.733 15.48 140.733 16.12ZM163.045 10.34C163.045 11.2067 162.551 12.0667 161.565 12.92C160.591 13.76 159.078 14.5067 157.025 15.16C157.025 15.1733 157.025 15.1933 157.025 15.22C157.025 15.66 157.078 16.0133 157.185 16.28C157.291 16.5333 157.525 16.66 157.885 16.66C158.418 16.66 159.011 16.5 159.665 16.18C160.331 15.8467 161.018 15.4267 161.725 14.92C162.445 14.4 163.145 13.8533 163.825 13.28C164.505 12.7067 165.131 12.1667 165.705 11.66C166.291 11.14 166.785 10.72 167.185 10.4C167.598 10.0667 167.871 9.9 168.005 9.9C168.285 9.9 168.518 10.0067 168.705 10.22C168.905 10.4333 169.005 10.7533 169.005 11.18C169.005 11.42 168.991 11.7067 168.965 12.04C169.551 11.0267 170.231 10.1933 171.005 9.54C171.778 8.87333 172.538 8.38 173.285 8.06C174.045 7.72667 174.691 7.56 175.225 7.56C175.825 7.56 176.231 7.68 176.445 7.92C176.658 8.14667 176.765 8.38667 176.765 8.64C176.765 8.78667 176.731 8.93333 176.665 9.08C176.611 9.21333 176.465 9.36 176.225 9.52C175.998 9.68 175.618 9.86667 175.085 10.08C174.378 10.3467 173.705 10.66 173.065 11.02C172.438 11.38 171.858 11.8733 171.325 12.5C170.805 13.1133 170.331 13.94 169.905 14.98C169.491 16.0067 169.145 17.3267 168.865 18.94C168.771 19.3933 168.625 19.7 168.425 19.86C168.225 20.0333 167.991 20.12 167.725 20.12C167.698 20.12 167.651 20.12 167.585 20.12C167.465 20.1333 167.338 20.12 167.205 20.08C167.085 20.0533 166.965 19.94 166.845 19.74C166.738 19.5533 166.651 19.2267 166.585 18.76C166.518 18.2933 166.485 17.6267 166.485 16.76C166.485 16.24 166.505 15.6933 166.545 15.12C166.598 14.5333 166.665 13.9267 166.745 13.3C166.065 13.9667 165.338 14.64 164.565 15.32C163.791 16 162.991 16.6267 162.165 17.2C161.351 17.76 160.551 18.2133 159.765 18.56C158.991 18.9067 158.271 19.08 157.605 19.08C156.711 19.08 155.978 18.7933 155.405 18.22C154.845 17.6333 154.565 16.7333 154.565 15.52C154.565 14.32 154.725 13.2333 155.045 12.26C155.378 11.2733 155.805 10.4267 156.325 9.72C156.845 9.01333 157.398 8.47333 157.985 8.1C158.585 7.71333 159.145 7.52 159.665 7.52C160.771 7.52 161.611 7.78667 162.185 8.32C162.758 8.84 163.045 9.51333 163.045 10.34ZM157.285 13.38C157.631 13.2067 157.998 13.0067 158.385 12.78C158.785 12.54 159.158 12.2933 159.505 12.04C159.851 11.7733 160.131 11.5133 160.345 11.26C160.571 11.0067 160.685 10.7667 160.685 10.54C160.685 10.1667 160.578 9.94 160.365 9.86C160.165 9.76667 159.891 9.72 159.545 9.72C159.185 9.72 158.858 9.91333 158.565 10.3C158.271 10.6733 158.018 11.14 157.805 11.7C157.591 12.26 157.418 12.82 157.285 13.38Z" fill="#74758C"/>
</svg>
