<svg width="73" height="21" viewBox="0 0 73 21" fill="none" xmlns="http://www.w3.org/2000/svg">
<path d="M1.86359 19.52C1.45026 19.52 1.06359 19.3933 0.703594 19.14C0.343594 18.8867 0.163594 18.4733 0.163594 17.9C0.163594 17.46 0.276927 17.1067 0.503594 16.84C0.73026 16.56 0.99026 16.3533 1.28359 16.22C1.59026 16.0867 1.85026 16.02 2.06359 16.02C2.29026 16.02 2.54359 16.0733 2.82359 16.18C3.11693 16.2733 3.37026 16.4533 3.58359 16.72C3.79693 16.9733 3.90359 17.34 3.90359 17.82C3.90359 18.2867 3.70359 18.6867 3.30359 19.02C2.91693 19.3533 2.43693 19.52 1.86359 19.52ZM5.98469 19.52C5.57135 19.52 5.18469 19.3933 4.82469 19.14C4.46469 18.8867 4.28469 18.4733 4.28469 17.9C4.28469 17.46 4.39802 17.1067 4.62469 16.84C4.85135 16.56 5.11135 16.3533 5.40469 16.22C5.71135 16.0867 5.97135 16.02 6.18469 16.02C6.41135 16.02 6.66469 16.0733 6.94469 16.18C7.23802 16.2733 7.49135 16.4533 7.70469 16.72C7.91802 16.9733 8.02469 17.34 8.02469 17.82C8.02469 18.2867 7.82469 18.6867 7.42469 19.02C7.03802 19.3533 6.55802 19.52 5.98469 19.52ZM10.1058 19.52C9.69245 19.52 9.30578 19.3933 8.94578 19.14C8.58578 18.8867 8.40578 18.4733 8.40578 17.9C8.40578 17.46 8.51911 17.1067 8.74578 16.84C8.97245 16.56 9.23245 16.3533 9.52578 16.22C9.83245 16.0867 10.0924 16.02 10.3058 16.02C10.5324 16.02 10.7858 16.0733 11.0658 16.18C11.3591 16.2733 11.6124 16.4533 11.8258 16.72C12.0391 16.9733 12.1458 17.34 12.1458 17.82C12.1458 18.2867 11.9458 18.6867 11.5458 19.02C11.1591 19.3533 10.6791 19.52 10.1058 19.52ZM15.2861 6.82C14.6461 6.82 14.1728 6.76 13.8661 6.64C13.5728 6.50667 13.3794 6.35333 13.2861 6.18C13.2061 5.99333 13.1661 5.82667 13.1661 5.68C13.1661 5.49333 13.2728 5.28 13.4861 5.04C13.6994 4.78667 14.1128 4.6 14.7261 4.48C15.3394 4.34667 16.0661 4.22667 16.9061 4.12C17.7461 4 18.6394 3.9 19.5861 3.82C20.5328 3.72667 21.4928 3.64667 22.4661 3.58C23.4394 3.51333 24.3661 3.46667 25.2461 3.44C26.1261 3.4 26.9061 3.38 27.5861 3.38C28.2928 3.38 28.8394 3.42 29.2261 3.5C29.6128 3.58 29.8861 3.68 30.0461 3.8C30.2194 3.92 30.3194 4.04667 30.3461 4.18C30.3861 4.31333 30.4061 4.44 30.4061 4.56C30.4061 4.58667 30.4061 4.60667 30.4061 4.62C30.4061 4.78 30.3661 4.95333 30.2861 5.14C30.2194 5.32667 30.0661 5.48667 29.8261 5.62C29.5861 5.74 29.2261 5.8 28.7461 5.8C28.5728 5.8 28.1861 5.82667 27.5861 5.88C26.9861 5.93333 26.2528 6 25.3861 6.08C24.5194 6.16 23.5994 6.24 22.6261 6.32C22.4794 6.92 22.3128 7.62 22.1261 8.42C21.9528 9.22 21.7728 10.06 21.5861 10.94C21.4128 11.82 21.2461 12.6867 21.0861 13.54C20.9261 14.38 20.7928 15.16 20.6861 15.88C20.5794 16.5867 20.5061 17.1667 20.4661 17.62C20.4128 18.2333 20.2328 18.6667 19.9261 18.92C19.6328 19.16 19.3394 19.28 19.0461 19.28C18.8328 19.28 18.6194 19.2333 18.4061 19.14C18.1928 19.06 18.0194 18.88 17.8861 18.6C17.7528 18.3067 17.6861 17.8733 17.6861 17.3C17.6861 16.7133 17.7394 15.9933 17.8461 15.14C17.9528 14.2733 18.0928 13.3467 18.2661 12.36C18.4528 11.3733 18.6594 10.38 18.8861 9.38C19.1261 8.38 19.3728 7.44667 19.6261 6.58C18.7328 6.64667 17.9061 6.70667 17.1461 6.76C16.3861 6.8 15.7661 6.82 15.2861 6.82ZM27.7981 19.76C27.3715 19.76 26.9848 19.64 26.6381 19.4C26.2915 19.1733 26.0181 18.8733 25.8181 18.5C25.6181 18.1133 25.5181 17.7 25.5181 17.26C25.5181 16.4333 25.6981 15.6267 26.0581 14.84C26.4315 14.0533 26.9181 13.3067 27.5181 12.6C28.1181 11.8933 28.7715 11.2467 29.4781 10.66C30.1981 10.06 30.9115 9.54667 31.6181 9.12C32.3381 8.69333 32.9915 8.36 33.5781 8.12C34.1781 7.88 34.6448 7.76 34.9781 7.76C35.3648 7.76 35.6781 7.84667 35.9181 8.02C36.1715 8.18 36.2981 8.43333 36.2981 8.78C36.2981 8.88667 36.2715 8.97333 36.2181 9.04C36.3915 9.08 36.5315 9.18 36.6381 9.34C36.7448 9.5 36.7981 9.74 36.7981 10.06C36.7981 10.1933 36.7648 10.54 36.6981 11.1C36.6315 11.66 36.5581 12.34 36.4781 13.14C36.4115 13.94 36.3781 14.7733 36.3781 15.64C36.3781 15.7733 36.3981 15.8933 36.4381 16C36.4781 16.0933 36.5648 16.14 36.6981 16.14C37.2315 16.14 37.7715 16.0333 38.3181 15.82C38.8781 15.5933 39.4181 15.32 39.9381 15C40.4715 14.6667 40.9515 14.34 41.3781 14.02C41.8181 13.6867 42.1848 13.4133 42.4781 13.2C42.7848 12.9733 42.9848 12.86 43.0781 12.86C43.5315 12.86 43.7581 13.0867 43.7581 13.54C43.7581 13.66 43.6115 13.9133 43.3181 14.3C43.0381 14.6733 42.6515 15.1067 42.1581 15.6C41.6648 16.08 41.1115 16.56 40.4981 17.04C39.8981 17.5067 39.2715 17.8933 38.6181 18.2C37.9781 18.5067 37.3581 18.66 36.7581 18.66C36.0248 18.66 35.4648 18.4867 35.0781 18.14C34.7048 17.7933 34.4381 17.3267 34.2781 16.74C34.1315 16.14 34.0515 15.4667 34.0381 14.72C33.3581 15.6933 32.6515 16.56 31.9181 17.32C31.1981 18.0667 30.4848 18.66 29.7781 19.1C29.0715 19.54 28.4115 19.76 27.7981 19.76ZM34.8781 9.74C33.5715 10.3667 32.3981 11.0867 31.3581 11.9C30.3181 12.7 29.4915 13.54 28.8781 14.42C28.2781 15.3 27.9781 16.1467 27.9781 16.96C27.9781 17.1867 28.0848 17.3 28.2981 17.3C28.5515 17.3 28.8848 17.1533 29.2981 16.86C29.7248 16.5667 30.1848 16.18 30.6781 15.7C31.1715 15.2067 31.6648 14.66 32.1581 14.06C32.6515 13.4467 33.1115 12.82 33.5381 12.18C33.9648 11.54 34.3048 10.9267 34.5581 10.34C34.6515 10.1267 34.7581 9.92667 34.8781 9.74ZM44.0055 20.02C43.4321 20.02 43.0255 19.94 42.7855 19.78C42.5588 19.62 42.4455 19.3867 42.4455 19.08C42.4455 18.8133 42.5388 18.5867 42.7255 18.4C42.9121 18.2 43.3255 18 43.9655 17.8C44.7121 17.5733 45.4188 17.3133 46.0855 17.02C46.7655 16.7133 47.3188 16.38 47.7455 16.02C48.1855 15.66 48.4055 15.28 48.4055 14.88C48.4055 14.6133 48.3121 14.42 48.1255 14.3C47.9521 14.18 47.7455 14.12 47.5055 14.12C47.3055 14.12 47.0121 14.1533 46.6255 14.22C46.2521 14.2733 45.8388 14.3467 45.3855 14.44C44.9321 14.52 44.4921 14.5933 44.0655 14.66C43.6521 14.7133 43.2988 14.74 43.0055 14.74C42.3121 14.74 41.7988 14.5867 41.4655 14.28C41.1321 13.96 40.9655 13.5533 40.9655 13.06C40.9655 12.7933 41.1055 12.4267 41.3855 11.96C41.6655 11.4933 42.0388 10.98 42.5055 10.42C42.9721 9.86 43.4921 9.3 44.0655 8.74C44.6388 8.18 45.2188 7.66667 45.8055 7.2C46.4055 6.72 46.9721 6.34 47.5055 6.06C48.0388 5.76667 48.4921 5.62 48.8655 5.62C49.2921 5.62 49.6321 5.75333 49.8855 6.02C50.1521 6.28667 50.2855 6.64667 50.2855 7.1C50.2855 7.31333 50.2655 7.54667 50.2255 7.8C50.1855 8.04 50.0855 8.26 49.9255 8.46C49.7655 8.64667 49.5188 8.78 49.1855 8.86C48.8521 8.94 48.3988 8.92667 47.8255 8.82C47.3721 9.15333 46.8988 9.52 46.4055 9.92C45.9255 10.3067 45.4721 10.7133 45.0455 11.14C44.6188 11.5533 44.2655 11.96 43.9855 12.36C44.4788 12.2 45.0388 12.0733 45.6655 11.98C46.2921 11.8733 46.9255 11.82 47.5655 11.82C48.3388 11.82 48.9655 11.96 49.4455 12.24C49.9388 12.5067 50.2988 12.8667 50.5255 13.32C50.7655 13.7733 50.8855 14.2733 50.8855 14.82C50.8855 15.4333 50.6855 16.0467 50.2855 16.66C49.8855 17.2733 49.3521 17.8333 48.6855 18.34C48.0188 18.8467 47.2788 19.2533 46.4655 19.56C45.6521 19.8667 44.8321 20.02 44.0055 20.02ZM64.0345 20.46C63.1279 20.46 62.2879 20.2667 61.5145 19.88C60.7412 19.5067 60.0345 19.0133 59.3945 18.4C58.7545 17.7733 58.1812 17.0933 57.6745 16.36C57.1812 15.6133 56.7612 14.88 56.4145 14.16C56.2545 14.8933 56.1079 15.52 55.9745 16.04C55.8545 16.56 55.7545 16.9933 55.6745 17.34C55.6079 17.6067 55.5345 17.8667 55.4545 18.12C55.3879 18.3733 55.2812 18.58 55.1345 18.74C54.9879 18.9 54.7812 18.98 54.5145 18.98C53.9412 18.98 53.5745 18.7867 53.4145 18.4C53.2545 18 53.1745 17.4933 53.1745 16.88C53.1745 16.3333 53.2612 15.6133 53.4345 14.72C53.6212 13.8267 53.8679 12.8267 54.1745 11.72C54.4812 10.6133 54.8345 9.47333 55.2345 8.3C55.6479 7.11333 56.0879 5.96 56.5545 4.84C57.0212 3.70667 57.4879 2.68 57.9545 1.76C58.2479 1.2 58.5079 0.846666 58.7345 0.7C58.9612 0.539999 59.2279 0.459999 59.5345 0.459999C59.8412 0.459999 60.0745 0.539999 60.2345 0.7C60.3945 0.859999 60.4745 1.07333 60.4745 1.34C60.4745 1.51333 60.4345 1.68667 60.3545 1.86C60.2745 2.03333 60.1879 2.24667 60.0945 2.5C59.7879 3.18 59.4679 3.97333 59.1345 4.88C58.8012 5.77333 58.4812 6.7 58.1745 7.66C57.8679 8.60667 57.5945 9.50667 57.3545 10.36C58.0079 9.97333 58.7345 9.6 59.5345 9.24C60.3345 8.86667 61.1412 8.53333 61.9545 8.24C62.7812 7.93333 63.5545 7.69333 64.2745 7.52C64.9945 7.34667 65.6012 7.26 66.0945 7.26C66.4812 7.26 66.7745 7.37333 66.9745 7.6C67.1745 7.82667 67.2745 8.07333 67.2745 8.34C67.2745 8.54 67.2145 8.74 67.0945 8.94C66.9745 9.14 66.7212 9.31333 66.3345 9.46C65.0545 9.88667 63.7812 10.32 62.5145 10.76C61.2612 11.2 59.8679 11.72 58.3345 12.32C58.6545 12.9467 59.0279 13.5933 59.4545 14.26C59.8812 14.9133 60.3412 15.5267 60.8345 16.1C61.3279 16.66 61.8345 17.12 62.3545 17.48C62.8745 17.8267 63.3879 18 63.8945 18C64.6412 18 65.3612 17.8533 66.0545 17.56C66.7479 17.2533 67.3879 16.8867 67.9745 16.46C68.5612 16.02 69.0745 15.5933 69.5145 15.18C69.9679 14.7667 70.3212 14.4467 70.5745 14.22C70.7212 14.0733 70.8612 13.9667 70.9945 13.9C71.1412 13.8333 71.3212 13.8 71.5345 13.8C71.7879 13.8 71.9812 13.88 72.1145 14.04C72.2612 14.1867 72.3279 14.38 72.3145 14.62C72.3012 14.8467 72.1879 15.0733 71.9745 15.3C71.8012 15.4867 71.5279 15.7867 71.1545 16.2C70.7945 16.6 70.3545 17.0467 69.8345 17.54C69.3279 18.02 68.7612 18.4867 68.1345 18.94C67.5212 19.38 66.8679 19.74 66.1745 20.02C65.4812 20.3133 64.7679 20.46 64.0345 20.46Z" fill="#008CAB"/>
</svg>
